# xmcd
#
# Track frame offsets:
#	150
#	14967
#	28245
#	42864
#	52888
#	66547
#	77650
#	91639
#	103303
#	116632
#	127396
#	138268
#
# Disc length: 2025 seconds
#
# Revision: 1
# Processed by: cddbd v1.5.2PL0 Copyright (c) Steve Scherf et al.
# Submitted via: audiograbber 1.83.01
#
DISCID=ae07e70c
DTITLE=Chuck Willis - Wails The Blues
DYEAR=1958
DGENRE=Blues
TTITLE0=My Story
TTITLE1=I Feel So Bad
TTITLE2=You're Still My Baby
TTITLE3=Lawdy Miss Mary
TTITLE4=Need One More Chance
TTITLE5=Caldonia (What Makes Your Big Head So Hard?)
TTITLE6=Don't Deceive Me
TTITLE7=One More Break
TTITLE8=I Can Tell
TTITLE9=Search My Heart
TTITLE10=Love-Struck
TTITLE11=Charged With Cheating
EXTD=
EXTT0=
EXTT1=
EXTT2=
EXTT3=
EXTT4=
EXTT5=
EXTT6=
EXTT7=
EXTT8=
EXTT9=
EXTT10=
EXTT11=
PLAYORDER=
